<?xml version="1.0" encoding="UTF-8"?>
<svg width="542px" height="609px" viewBox="0 0 542 609" version="1.1" xmlns="http://www.w3.org/2000/svg" xmlns:xlink="http://www.w3.org/1999/xlink">
    <title>Image</title>
    <g id="Page-1" stroke="none" stroke-width="1" fill="none" fill-rule="evenodd">
        <g id="01-Productly" transform="translate(-715.000000, -2697.000000)" fill-rule="nonzero">
            <g id="06-Marketers" transform="translate(147.000000, 2697.000000)">
                <g id="Image" transform="translate(568.000000, 0.000000)">
                    <path d="M538.65,395.3 C531.432251,435.945319 510.673117,472.952263 479.75,500.3 C469.073487,509.714374 457.520868,518.085837 445.25,525.3 C402,551.45 348.4,567.3 292.6,580.3 L283.05,582.45 C274.755793,584.334058 266.247985,585.107496 257.75,584.75 C169,581.05 108.55,449.5 89.75,311.05 C73.35,187.8 100.8,48.2 223.7,41.9 C269.85,39.6 323.7,62.6 373.7,99.6 C377.3,102.25 380.9,105 384.45,107.8 L384.45,107.8 L386.65,109.55 C480,183.95 556.25,304.6 538.65,395.3 Z" id="Path" fill="#FDE6D6"></path>
                    <path d="M103.05,511.35 C110,525.4 112.55,543.2 98.6,548.9 C83,555.3 58.1,545 50.9,521.55 C46.25,506.55 47.85,485.65 60.9,477.6 C71.55,470.7 94.75,494.15 103.05,511.35 Z" id="Path" fill="#F5F9FD"></path>
                    <path d="M484.75,196.25 C478.5,190.8 473.5,182.7 478.8,177.25 C484.1,171.8 498.4,171.35 506.8,181.3 C512.15,187.65 515.85,198.05 511.8,204.4 C508.2,209.8 492.55,202.9 484.75,196.25 Z" id="Path" fill="#FFAD69"></path>
                    <path d="M233.85,608.5 L233.85,608.5 C230.495751,608.299423 227.156473,607.89871 223.85,607.3 C223.678957,607.277119 223.526046,607.181702 223.430324,607.038118 C223.334601,606.894533 223.305335,606.716686 223.35,606.55 C223.374413,606.38983 223.462565,606.246341 223.594406,606.152169 C223.726248,606.057997 223.89057,606.021147 224.05,606.05 C227.356331,606.649656 230.695665,607.050376 234.05,607.25 C234.218184,607.249415 234.378893,607.319445 234.492969,607.443028 C234.607046,607.566611 234.664016,607.7324 234.65,607.9 C234.640407,608.093028 234.545414,608.271776 234.390801,608.387735 C234.236189,608.503695 234.037993,608.544838 233.85,608.5 Z M243.85,608.5 C243.518629,608.5 243.25,608.231371 243.25,607.9 C243.219978,607.737759 243.264379,607.57061 243.370956,607.444655 C243.477534,607.3187 243.635028,607.247246 243.8,607.25 C247.156922,607.022991 250.496615,606.588831 253.8,605.95 C254.14373,605.888105 254.47493,606.108905 254.55,606.45 C254.578853,606.60943 254.542003,606.773752 254.447831,606.905594 C254.353659,607.037435 254.21017,607.125587 254.05,607.15 C250.746614,607.799275 247.4073,608.250083 244.05,608.5 L243.85,608.5 Z M214.25,605 L214.25,605 C211.040737,604.019324 207.88623,602.867678 204.8,601.55 C204.494915,601.413068 204.343509,601.066997 204.45,600.75 C204.606305,600.437579 204.969025,600.288223 205.3,600.4 C208.336142,601.700912 211.440716,602.835918 214.6,603.8 C214.944823,603.897101 215.14608,604.254891 215.05,604.6 C214.897701,604.889079 214.565671,605.034343 214.25,604.95 L214.25,605 Z M263.5,604.7 C263.21934,604.70888 262.97006,604.52192 262.9,604.25 C262.799503,603.919403 262.975225,603.56796 263.3,603.45 C264.75,603 266.25,602.45 267.75,601.9 L272.75,600.05 C272.902069,599.985254 273.074112,599.986105 273.225534,600.052352 C273.376955,600.118599 273.494343,600.244374 273.55,600.4 C273.63275,600.549805 273.641049,600.729594 273.572453,600.886386 C273.503856,601.043177 273.366182,601.159102 273.2,601.2 L268.2,603.1 C266.7,603.65 265.15,604.2 263.65,604.65 L263.5,604.7 Z M282.2,597.65 C281.951508,597.643471 281.732774,597.484392 281.65,597.25 C281.56725,597.100195 281.558951,596.920406 281.627547,596.763614 C281.696144,596.606823 281.833818,596.490898 282,596.45 L291.3,592.75 C291.616997,592.643509 291.963068,592.794915 292.1,593.1 C292.206491,593.416997 292.055085,593.763068 291.75,593.9 L282.45,597.6 L282.2,597.65 Z M195.85,597.2 L195.55,597.2 C192.65,595.65 189.75,593.9 186.9,592.2 C186.689077,591.955921 186.689077,591.594079 186.9,591.35 C187.012581,591.237027 187.165509,591.173527 187.325,591.173527 C187.484491,591.173527 187.637419,591.237027 187.75,591.35 C190.55,593.2 193.45,594.9 196.3,596.35 C196.510923,596.594079 196.510923,596.955921 196.3,597.2 C196.148855,597.237803 195.98916,597.220059 195.85,597.15 L195.85,597.2 Z M300.85,590.15 C300.609828,590.166266 300.386985,590.024457 300.3,589.8 C300.155399,589.482082 300.287879,589.106722 300.6,588.95 C303.7,587.7 306.8,586.4 309.85,585.05 C310.165671,584.965657 310.497701,585.110921 310.65,585.4 C310.71746,585.545716 310.723696,585.712393 310.667315,585.862743 C310.610934,586.013094 310.496639,586.134571 310.35,586.2 C307.25,587.55 304.2,588.85 301.1,590.1 L300.85,590.15 Z M179.15,586.35 C179.036446,586.388112 178.913554,586.388112 178.8,586.35 C176.2,584.35 173.8,582.25 171,580 C170.737665,579.779086 170.704086,579.387335 170.925,579.125 C171.145914,578.862665 171.537665,578.829086 171.8,579.05 C174.35,581.25 176.8,583.4 179.55,585.35 C179.67915,585.4639 179.753137,585.6278 179.753137,585.8 C179.753137,585.9722 179.67915,586.1361 179.55,586.25 C179.398675,586.339016 179.215955,586.357288 179.05,586.3 L179.15,586.35 Z M319.15,582.25 C318.901508,582.243471 318.682774,582.084392 318.6,581.85 C318.53254,581.704284 318.526304,581.537607 318.582685,581.387257 C318.639066,581.236906 318.753361,581.115429 318.9,581.05 C321.95,579.65 325,578.3 328,576.85 C328.213623,576.678322 328.511975,576.659076 328.745885,576.801885 C328.979795,576.944694 329.099003,577.218872 329.043907,577.487336 C328.988811,577.755799 328.77125,577.960864 328.5,578 L319.4,582.2 L319.15,582.25 Z M337.3,573.750017 C337.063747,573.751794 336.848435,573.614777 336.75,573.4 C336.665679,573.249437 336.650267,573.069858 336.7077,572.907129 C336.765134,572.744401 336.889852,572.614279 337.05,572.55 L345.95,568.05 C346.147257,567.85908 346.443189,567.812668 346.689423,567.934033 C346.935656,568.055399 347.079096,568.318373 347.047825,568.591104 C347.016554,568.863836 346.817313,569.087518 346.55,569.15 C343.55,570.7 340.6,572.2 337.55,573.65 L337.3,573.750017 Z M163.9,573.25 C163.771392,573.300203 163.628608,573.300203 163.5,573.25 C161.166667,570.95 158.816667,568.55 156.45,566.05 C156.322817,565.945529 156.249106,565.78959 156.249106,565.625 C156.249106,565.46041 156.322817,565.304471 156.45,565.2 C156.701487,564.958722 157.098513,564.958722 157.35,565.2 C159.7,567.7 162.05,570.2 164.35,572.35 C164.477183,572.454471 164.550894,572.61041 164.550894,572.775 C164.550894,572.93959 164.477183,573.095529 164.35,573.2 C164.208476,573.271314 164.041524,573.271314 163.9,573.2 L163.9,573.25 Z M355.1,564.55 C354.870213,564.531034 354.664503,564.400127 354.55,564.2 C354.397416,563.894958 354.506562,563.523859 354.8,563.35 C357.75,561.75 360.7,560.1 363.5,558.35 C363.744079,558.139077 364.105921,558.139077 364.35,558.35 C364.462973,558.462581 364.526473,558.615509 364.526473,558.775 C364.526473,558.934491 364.462973,559.087419 364.35,559.2 L355.6,564.2 L355.1,564.55 Z M150.1,558.65 C149.939017,558.711554 149.760983,558.711554 149.6,558.65 C147.45,556.2 145.35,553.65 143.25,550.9 C143.042893,550.637665 143.087665,550.257107 143.35,550.05 C143.612335,549.842893 143.992893,549.887665 144.2,550.15 C146.3,552.8 148.45,555.15 150.55,557.85 C150.791278,558.101487 150.791278,558.498513 150.55,558.75 L150.1,558.65 Z M372.25,554.5 C372.039677,554.503846 371.845582,554.387389 371.75,554.2 C371.637027,554.087419 371.573527,553.934491 371.573527,553.775 C371.573527,553.615509 371.637027,553.462581 371.75,553.35 C374.65,551.55 377.5,549.75 380.2,547.95 C380.312581,547.837027 380.465509,547.773527 380.625,547.773527 C380.784491,547.773527 380.937419,547.837027 381.05,547.95 C381.162973,548.062581 381.226473,548.215509 381.226473,548.375 C381.226473,548.534491 381.162973,548.687419 381.05,548.8 C378.35,550.6 375.5,552.4 372.6,554.2 L372.25,554.5 Z M389,543.45 C388.841273,543.522753 388.658727,543.522753 388.5,543.45 C388.387027,543.337419 388.323527,543.184491 388.323527,543.025 C388.323527,542.865509 388.387027,542.712581 388.5,542.6 C391.25,540.6 393.95,538.65 396.55,536.65 C396.662581,536.537027 396.815509,536.473527 396.975,536.473527 C397.134491,536.473527 397.287419,536.537027 397.4,536.65 C397.512973,536.762581 397.576473,536.915509 397.576473,537.075 C397.576473,537.234491 397.512973,537.387419 397.4,537.5 C394.8,539.5 392.1,541.5 389.3,543.45 C389.247665,543.441395 389.197032,543.424517 389.15,543.4 L389,543.45 Z M137.65,542.95 C137.44268,542.943153 137.253603,542.829707 137.15,542.65 C135.2,540.05 133.25,537.3 131.35,534.5 C131.131587,534.239754 131.131587,533.860246 131.35,533.6 C131.601487,533.358722 131.998513,533.358722 132.25,533.6 C134.15,536.35 136.1,539.1 138,541.75 C138.112973,541.862581 138.176473,542.015509 138.176473,542.175 C138.176473,542.334491 138.112973,542.487419 138,542.6 C137.962957,542.716859 137.893623,542.820861 137.8,542.9 L137.65,542.95 Z M404.9,531.3 C404.705847,531.28972 404.524716,531.199155 404.4,531.05 C404.287027,530.937419 404.223527,530.784491 404.223527,530.625 C404.223527,530.465509 404.287027,530.312581 404.4,530.2 C406.95,528.05 409.4,525.85 411.95,523.65 C412.062581,523.537027 412.215509,523.473527 412.375,523.473527 C412.534491,523.473527 412.687419,523.537027 412.8,523.65 C413.041278,523.901487 413.041278,524.298513 412.8,524.55 L405.2,531.1 C405.158551,531.157877 405.107877,531.208551 405.05,531.25 L404.9,531.3 Z M126.35,526.3 C126.129651,526.292201 125.925855,526.181039 125.8,526 C124.05,523.25 122.25,520.35 120.5,517.5 C120.289077,517.255921 120.289077,516.894079 120.5,516.65 C120.612581,516.537027 120.765509,516.473527 120.925,516.473527 C121.084491,516.473527 121.237419,516.537027 121.35,516.65 C123.05,519.5 124.85,522.35 126.6,525.15 C126.810923,525.394079 126.810923,525.755921 126.6,526 L126.35,526.3 Z M419.75,517.8 C419.623995,517.862516 419.476005,517.862516 419.35,517.8 C419.222817,517.695529 419.149106,517.53959 419.149106,517.375 C419.149106,517.21041 419.222817,517.054471 419.35,516.95 C421.7,514.55 424.05,511.95 426.25,509.75 C426.362581,509.637027 426.515509,509.573527 426.675,509.573527 C426.834491,509.573527 426.987419,509.637027 427.1,509.75 C427.341278,510.001487 427.341278,510.398513 427.1,510.65 C424.9,513.05 422.55,515.65 420.15,517.9 C420.00904,517.914964 419.867335,517.879537 419.75,517.8 L419.75,517.8 Z M116.05,509.200004 C115.827391,509.200779 115.619866,509.087584 115.5,508.9 C113.9,506.05 112.25,503.1 110.5,500.1 C110.433475,499.815392 110.565095,499.521382 110.821686,499.381424 C111.078276,499.241465 111.396728,499.289982 111.6,499.5 C113.2,502.5 114.85,505.45 116.6,508.25 C116.810923,508.494079 116.810923,508.855921 116.6,509.1 L116.05,509.200004 Z M433.25,503 L432.85,503 C432.608722,502.748513 432.608722,502.351487 432.85,502.1 C434.95,499.5 437,497.1 438.95,494.2 C439.062581,494.087027 439.215509,494.023527 439.375,494.023527 C439.534491,494.023527 439.687419,494.087027 439.8,494.2 C439.912973,494.312581 439.976473,494.465509 439.976473,494.625 C439.976473,494.784491 439.912973,494.937419 439.8,495.05 C437.85,497.7 435.8,500.4 433.65,503 C433.551932,503.0278 433.448068,503.0278 433.35,503 L433.25,503 Z M106.55,491.550017 C106.313747,491.551794 106.098435,491.414777 106,491.2 C104.45,488.2 102.95,485.15 101.55,482.2 C101.48254,482.054284 101.476304,481.887607 101.532685,481.737257 C101.589066,481.586906 101.703361,481.465429 101.85,481.4 C102.077761,481.196285 102.422239,481.196285 102.65,481.4 L107.1,490.4 C107.252584,490.705042 107.143438,491.076141 106.85,491.25 L106.55,491.550017 Z M445,486.85 L444.7,486.85 C444.587027,486.737419 444.523527,486.584491 444.523527,486.425 C444.523527,486.265509 444.587027,486.112581 444.7,486 C446.5,483.2 448.2,480.35 449.7,477.45 C449.762482,477.182687 449.986164,476.983446 450.258896,476.952175 C450.531627,476.920904 450.794601,477.064344 450.915967,477.310577 C451.037332,477.556811 450.99092,477.852743 450.8,478.05 C449.15,480.95 447.4,483.85 445.8,486.65 C445.633837,486.860566 445.36196,486.957665 445.1,486.9 L445,486.85 Z M97.85,473.500017 C97.6137473,473.501794 97.3984346,473.364777 97.3,473.15 C95.9,470.1 94.55,467.05 93.2,463.95 C93.1325403,463.804284 93.1263036,463.637607 93.182685,463.487257 C93.2390664,463.336906 93.3533606,463.215429 93.5,463.15 C93.6571428,463.067782 93.8426085,463.059297 94.0066018,463.126824 C94.1705951,463.194351 94.2963124,463.33097 94.35,463.5 C95.65,466.55 97.05,469.6 98.4,472.6 C98.5446011,472.917918 98.4121209,473.293278 98.1,473.45 L97.85,473.500017 Z M454.75,469.4 L454.75,469.4 C454.437879,469.243278 454.305399,468.867918 454.45,468.55 C455.9,465.6 457.25,462.55 458.55,459.45 C458.615429,459.303361 458.736906,459.189066 458.887257,459.132685 C459.037607,459.076304 459.204284,459.08254 459.35,459.15 C459.655085,459.286932 459.806491,459.633003 459.7,459.95 C458.4,463.05 457.05,466.15 455.6,469.1 C455.443278,469.412121 455.067918,469.544601 454.75,469.4 L454.75,469.4 Z M89.75,455.1 C89.509828,455.116266 89.2869852,454.974457 89.2,454.75 C87.9,451.65 86.65,448.55 85.45,445.45 C85.3677821,445.292857 85.3592975,445.107391 85.4268241,444.943398 C85.4943508,444.779405 85.6309696,444.653688 85.8,444.6 C86.1305965,444.499503 86.4820398,444.675225 86.6,445 C87.8,448.1 89.05,451.2 90.35,454.25 C90.461777,454.580975 90.3124215,454.943695 90,455.1 L89.75,455.1 Z M462.35,450.9 L462.35,450.9 C462.025225,450.78204 461.849503,450.430597 461.95,450.1 C463.05,446.95 464,443.75 464.9,440.6 C464.982843,440.268629 465.318629,440.067157 465.65,440.15 C465.981371,440.232843 466.182843,440.568629 466.1,440.9 C465.2,444.1 464.2,447.35 463.15,450.5 C463.049075,450.742221 462.812406,450.9 462.55,450.9 L462.35,450.9 Z M82.35,436.45 C82.0875944,436.45 81.8509252,436.292221 81.75,436.05 C80.6,432.95 79.45,429.8 78.35,426.65 C78.2257359,426.332436 78.3824363,425.974264 78.7,425.85 C79.0175637,425.725736 79.3757359,425.882436 79.5,426.2 C80.65,429.35 81.75,432.5 82.95,435.65 C83.0504971,435.980597 82.8747755,436.33204 82.55,436.45 L82.35,436.45 Z M467.6,431.45 L467.6,431.45 C467.258905,431.37493 467.038105,431.04373 467.1,430.7 C467.8,427.4 468.45,424.1 468.95,420.7 C469.02507,420.358905 469.35627,420.138105 469.7,420.2 C469.86017,420.224413 470.003659,420.312565 470.097831,420.444406 C470.192003,420.576248 470.228853,420.74057 470.2,420.9 C469.7,424.15 469.05,427.45 468.35,430.9 C468.448078,431.089748 468.454155,431.313892 468.366502,431.508676 C468.278849,431.703459 468.10706,431.847564 467.9,431.9 L467.6,431.45 Z M75.95,417.6 C75.6797364,417.578836 75.4459908,417.403527 75.35,417.15 C74.3,414 73.25,410.85 72.25,407.65 C72.2232637,407.349987 72.406141,407.070907 72.6918861,406.975658 C72.9776312,406.88041 73.2913814,406.993948 73.45,407.25 C74.45,410.45 75.5,413.6 76.55,416.75 C76.6129209,416.908721 76.6052415,417.086731 76.5288854,417.239443 C76.4525293,417.392155 76.314729,417.505104 76.15,417.55 L75.95,417.6 Z M470.95,411.950077 L470.95,411.950077 C470.785028,411.952754 470.627534,411.8813 470.520956,411.755345 C470.414379,411.62939 470.369978,411.462241 470.4,411.3 C470.75,408.05 471.05,404.7 471.25,401.3 C471.249415,401.131816 471.319445,400.971107 471.443028,400.857031 C471.566611,400.742954 471.7324,400.685984 471.9,400.7 L471.9,400.7 C472.228906,400.746833 472.479587,401.018404 472.5,401.35 C472.5,404.75 472,408.1 471.65,411.35 C471.614941,411.619944 471.415391,411.839449 471.15,411.9 L470.95,411.950077 Z M69.75,398.5 C69.4875944,398.5 69.2509252,398.342221 69.15,398.1 C68.2,394.9 67.25,391.65 66.35,388.45 C66.3048214,388.290639 66.3275335,388.11969 66.4127554,387.977653 C66.4979773,387.835617 66.6381265,387.73513 66.8,387.7 C66.9524999,387.653298 67.1173189,387.669234 67.2580462,387.744288 C67.3987734,387.819343 67.5038273,387.947339 67.55,388.1 C68.45,391.35 69.4,394.55 70.35,397.7 C70.4504971,398.030597 70.2747755,398.38204 69.95,398.5 L69.75,398.5 Z M472.2,391.9 C471.868629,391.9 471.6,391.631371 471.6,391.3 C471.6,388 471.35,384.65 471.1,381.3 C471.071323,381.132799 471.114765,380.961272 471.219574,380.827879 C471.324383,380.694487 471.480761,380.611695 471.65,380.6 C471.822507,380.586217 471.993389,380.641794 472.124784,380.754418 C472.256179,380.867042 472.337238,381.027414 472.35,381.2 C472.35,384.5 472.8,387.9 472.85,391.2 C472.851008,391.540332 472.589325,391.823822 472.25,391.85 L472.2,391.9 Z M64.45,379.25 C64.1693401,379.25888 63.9200596,379.07192 63.85,378.8 L63.85,378.3 C63,375.05 62.15,371.8 61.35,368.3 C61.3121148,367.961677 61.5231302,367.645153 61.85,367.55 C62.1744769,367.506131 62.4860132,367.693052 62.6,368 C63.4,371.25 64.2,374.5 65.05,377.7 L65.05,378.2 C65.1460803,378.545109 64.9448235,378.902899 64.6,379 L64.45,379.25 Z M470.5,371.9 C470.192269,371.908283 469.920929,371.69956 469.85,371.4 C469.35,368.2 468.75,364.9 468.05,361.4 C467.984215,361.071373 468.179078,360.746602 468.5,360.65 C468.84373,360.588105 469.17493,360.808905 469.25,361.15 C470,364.45 470.6,367.75 471.1,371.15 C471.128853,371.30943 471.092003,371.473752 470.997831,371.605594 C470.903659,371.737435 470.76017,371.825587 470.6,371.85 L470.5,371.9 Z M59.75,359.300059 C59.454052,359.304135 59.1993006,359.091842 59.15,358.8 C58.4,355.5 57.7,352.2 57.1,348.8 C57.0553347,348.633314 57.084601,348.455467 57.1803237,348.311882 C57.2760465,348.168298 57.4289569,348.072881 57.6,348.05 C57.7594301,348.021147 57.9237525,348.057997 58.0555935,348.152169 C58.1874346,348.246341 58.2755865,348.38983 58.3,348.55 C58.95,351.75 59.65,355.05 60.35,358.55 C60.3951786,358.709361 60.3724665,358.88031 60.2872446,359.022347 C60.2020227,359.164383 60.0618735,359.26487 59.9,359.300059 L59.75,359.300059 Z M466.45,352.500059 C466.154052,352.504135 465.899301,352.291842 465.85,352 C464.95,348.9 463.95,345.65 462.9,342.5 C462.837079,342.341279 462.844758,342.163269 462.921115,342.010557 C462.997471,341.857845 463.135271,341.744896 463.3,341.7 C463.458721,341.637079 463.636731,341.644758 463.789443,341.721115 C463.942155,341.797471 464.055104,341.935271 464.1,342.1 C465.15,345.3 466.15,348.55 467.05,351.7 C467.095179,351.859361 467.072467,352.03031 466.987245,352.172347 C466.902023,352.314383 466.761874,352.41487 466.6,352.45 L466.45,352.500059 Z M55.65,339.65 C55.354052,339.654135 55.0993006,339.441842 55.05,339.15 C54.45,335.85 53.9,332.5 53.4,329.15 C53.3713353,328.977305 53.4135406,328.800348 53.5170636,328.65918 C53.6205866,328.518012 53.7766746,328.424569 53.95,328.4 C54.2919646,328.369711 54.5985229,328.610578 54.65,328.95 C55.15,332.25 55.7,335.55 56.25,338.95 C56.3118952,339.29373 56.0910949,339.62493 55.75,339.7 L55.65,339.65 Z M459.75,333.5 C459.487594,333.5 459.250925,333.342221 459.15,333.1 C457.95,330.05 456.7,326.95 455.35,323.85 C455.28254,323.704284 455.276304,323.537607 455.332685,323.387257 C455.389066,323.236906 455.503361,323.115429 455.65,323.05 C455.967918,322.905399 456.343278,323.037879 456.5,323.35 C457.85,326.45 459.15,329.55 460.3,332.65 C460.364746,332.802069 460.363895,332.974112 460.297648,333.125534 C460.231401,333.276955 460.105626,333.394343 459.95,333.45 L459.75,333.5 Z M52.65,319.850047 C52.3266974,319.853846 52.0497195,319.61948 52,319.3 C51.6,316 51.2,312.65 50.85,309.3 C50.8213226,309.132799 50.8647651,308.961272 50.9695739,308.827879 C51.0743827,308.694487 51.2307612,308.611695 51.4,308.6 C51.7419646,308.569711 52.0485229,308.810578 52.1,309.15 C52.45,312.45 52.85,315.8 53.25,319.15 C53.2786774,319.317201 53.2352349,319.488728 53.1304261,319.622121 C53.0256173,319.755513 52.8692388,319.838305 52.7,319.850047 L52.65,319.850047 Z M451.85,315.15 C451.604771,315.138563 451.380664,315.007833 451.25,314.8 C449.85,311.9 448.3,308.9 446.7,305.9 C446.489077,305.655921 446.489077,305.294079 446.7,305.05 C447.005042,304.897416 447.376141,305.006562 447.55,305.3 C449.15,308.3 450.7,311.3 452.15,314.25 C452.294601,314.567918 452.162121,314.943278 451.85,315.1 L451.85,315.15 Z M50.55,299.9 C50.2372123,299.901088 49.9760639,299.661702 49.95,299.35 C49.95,295.95 49.45,292.55 49.3,289.35 C49.2989917,289.009668 49.5606747,288.726178 49.9,288.7 C50.0676001,288.685984 50.2333886,288.742954 50.3569717,288.857031 C50.4805548,288.971107 50.5505851,289.131816 50.55,289.3 C50.55,292.55 50.95,295.9 51.2,299.3 C51.2140165,299.4676 51.157046,299.633389 51.0429693,299.756972 C50.9288927,299.880555 50.7681842,299.950585 50.6,299.950004 L50.55,299.9 Z M442.35,297.500092 C442.139677,297.503846 441.945582,297.387389 441.85,297.2 C440.2,294.35 438.45,291.5 436.85,288.65 C436.631587,288.389754 436.631587,288.010246 436.85,287.75 C437.094079,287.539077 437.455921,287.539077 437.7,287.75 C439.5,290.65 441.25,293.5 442.7,296.35 C442.812973,296.462581 442.876473,296.615509 442.876473,296.775 C442.876473,296.934491 442.812973,297.087419 442.7,297.2 L442.35,297.500092 Z M431.75,280.5 C431.572428,280.565001 431.377572,280.565001 431.2,280.5 C429.4,277.8 427.5,275.05 425.55,272.25 C425.437027,272.137419 425.373527,271.984491 425.373527,271.825 C425.373527,271.665509 425.437027,271.512581 425.55,271.4 C425.801487,271.158722 426.198513,271.158722 426.45,271.4 C428.45,274.15 430.35,276.95 432.15,279.65 C432.360923,279.894079 432.360923,280.255921 432.15,280.5 C432.022475,280.555657 431.877525,280.555657 431.75,280.5 L431.75,280.5 Z M49.75,279.900004 C49.4186292,279.900004 49.15,279.631371 49.15,279.3 C49.15,276.95 49.15,274.6 49.15,272.25 C49.15,271.25 49.15,270.25 49.15,269.25 C49.15,268.918629 49.4186292,268.65 49.75,268.65 L49.75,268.65 C49.9176001,268.635984 50.0833886,268.692954 50.2069717,268.807031 C50.3305548,268.921107 50.4005851,269.081816 50.4,269.25 C50.4,270.25 50.4,271.25 50.4,272.25 C50.4,274.6 50.4,276.9 50.4,279.25 C50.4140165,279.4176 50.357046,279.583389 50.2429693,279.706972 C50.1288927,279.830555 49.9681842,279.900585 49.8,279.900004 L49.75,279.900004 Z M420.3,264.2 C420.141273,264.272753 419.958727,264.272753 419.8,264.2 C417.75,261.5 415.7,258.85 413.65,256.3 C413.537027,256.187419 413.473527,256.034491 413.473527,255.875 C413.473527,255.715509 413.537027,255.562581 413.65,255.45 C413.7639,255.32085 413.9278,255.246863 414.1,255.246863 C414.2722,255.246863 414.4361,255.32085 414.55,255.45 C416.55,258 418.65,260.45 420.7,263.35 C420.941278,263.601487 420.941278,263.998513 420.7,264.25 L420.3,264.2 Z M49.75,259.850047 L49.75,259.850047 C49.5818158,259.850585 49.4211073,259.780555 49.3070307,259.656972 C49.192954,259.533389 49.1359835,259.3676 49.15,259.2 C49.15,255.85 49.5,252.5 49.75,249.2 C49.7494149,249.031816 49.8194452,248.871107 49.9430283,248.757031 C50.0666114,248.642954 50.2323999,248.585984 50.4,248.6 C50.7471159,248.650083 51.0035945,248.949308 51,249.3 C51,252.55 50.55,255.95 50.4,259.3 C50.3502805,259.61948 50.0733026,259.853846 49.75,259.850047 Z M407.6,248.55 C407.44,248.616667 407.26,248.616667 407.1,248.55 L400.55,240.95 C400.437027,240.837419 400.373527,240.684491 400.373527,240.525 C400.373527,240.365509 400.437027,240.212581 400.55,240.1 C400.6639,239.97085 400.8278,239.896863 401,239.896863 C401.1722,239.896863 401.3361,239.97085 401.45,240.1 C403.6,242.5 405.8,245.1 408,247.65 C408.241278,247.901487 408.241278,248.298513 408,248.55 C407.871392,248.600203 407.728608,248.600203 407.6,248.55 L407.6,248.55 Z M51.35,239.9 L51.35,239.9 C51.0105779,239.848523 50.7697107,239.541965 50.8,239.2 C51.2,235.85 51.65,232.5 52.2,229.2 C52.2244135,229.03983 52.3125654,228.896341 52.4444065,228.802169 C52.5762475,228.707997 52.7405699,228.671147 52.9,228.7 C53.067208,228.708808 53.2212972,228.793306 53.3186196,228.929557 C53.4159421,229.065809 53.4458973,229.238973 53.4,229.4 C52.9,232.6 52.45,235.95 52.05,239.4 C51.9760967,239.719313 51.6760216,239.933653 51.35,239.9 L51.35,239.9 Z M394.3,233.55 C394.156863,233.614171 393.993137,233.614171 393.85,233.55 C391.6,231.1 389.25,228.55 386.95,226.3 C386.708722,226.048513 386.708722,225.651487 386.95,225.4 C387.210246,225.181587 387.589754,225.181587 387.85,225.4 C390.15,227.8 392.5,230.4 394.75,232.7 C394.991278,232.951487 394.991278,233.348513 394.75,233.6 C394.598315,233.627014 394.442056,233.609652 394.3,233.55 L394.3,233.55 Z M54.75,220.15 L54.75,220.15 C54.5789569,220.127119 54.4260465,220.031702 54.3303237,219.888118 C54.234601,219.744533 54.2053347,219.566686 54.25,219.4 C54.9,216.15 55.7,212.85 56.5,209.4 C56.5329941,209.226121 56.6410714,209.075678 56.7953246,208.98891 C56.9495778,208.902143 57.1342694,208.887903 57.3,208.95 C57.6209223,209.046602 57.8157851,209.371373 57.75,209.7 C56.9,212.9 56.15,216.2 55.45,219.45 C55.4652694,219.639923 55.3964389,219.826981 55.26171,219.96171 C55.1269811,220.096439 54.9399226,220.165269 54.75,220.15 L54.75,220.15 Z M380.6,219.2 C380.458476,219.271314 380.291524,219.271314 380.15,219.2 C377.7,216.85 375.15,214.5 372.9,212.25 C372.787027,212.137419 372.723527,211.984491 372.723527,211.825 C372.723527,211.665509 372.787027,211.512581 372.9,211.4 C373.151487,211.158722 373.548513,211.158722 373.8,211.4 C376.2,213.65 378.8,216 381.05,218.35 C381.291278,218.601487 381.291278,218.998513 381.05,219.25 C380.830231,219.385756 380.548242,219.365614 380.35,219.2 L380.6,219.2 Z M365.9,205.45 C365.769981,205.492046 365.630019,205.492046 365.5,205.45 C363.05,203.2 360.5,201 357.95,198.85 C357.731587,198.589754 357.731587,198.210246 357.95,197.95 C358.201487,197.708722 358.598513,197.708722 358.85,197.95 L366.4,204.55 C366.618413,204.810246 366.618413,205.189754 366.4,205.45 C366.175209,205.608775 365.874791,205.608775 365.65,205.45 L365.9,205.45 Z M59.75,200.75 L59.75,200.75 C59.441471,200.614393 59.2733684,200.278188 59.35,199.95 C60.4,196.7 61.5,193.5 62.7,190.45 C62.8522986,190.160921 63.1843295,190.015657 63.5,190.1 C63.655626,190.155657 63.7814012,190.273045 63.8476481,190.424466 C63.913895,190.575888 63.9147459,190.747931 63.85,190.9 C62.7,193.9 61.6,197.1 60.55,200.3 C60.4528991,200.644823 60.0951093,200.84608 59.75,200.75 Z M350.45,192.4 C350.321392,192.450203 350.178608,192.450203 350.05,192.4 C347.45,190.3 345.05,188.15 342.25,186.15 C342.040977,185.913208 342.032429,185.560429 342.229739,185.313791 C342.427049,185.067154 342.7731,184.998054 343.05,185.15 C345.6,187.2 348.05,189.3 350.85,191.45 C350.962973,191.562581 351.026473,191.715509 351.026473,191.875 C351.026473,192.034491 350.962973,192.187419 350.85,192.3 C350.72973,192.372736 350.590349,192.407581 350.45,192.4 L350.45,192.4 Z M66.8,181.9 L66.8,181.9 C66.639852,181.835721 66.5151339,181.705599 66.4577002,181.542871 C66.4002666,181.380142 66.4156786,181.200563 66.5,181.05 C67.9,178 69.45,175 71.05,172.1 C71.1124821,171.832687 71.3361641,171.633446 71.6088958,171.602175 C71.8816274,171.570904 72.1446011,171.714344 72.2659665,171.960577 C72.3873319,172.206811 72.3409196,172.502743 72.15,172.7 C70.55,175.55 69.05,178.55 67.6,181.6 C67.5345707,181.746639 67.4130935,181.860934 67.2627431,181.917315 C67.1123927,181.973696 66.9457165,181.96746 66.8,181.9 L66.8,181.9 Z M334.75,180.050008 L334.4,180.050008 C331.75,178.05 329,176.05 326.3,174.15 C326.098439,173.929356 326.073299,173.599705 326.239071,173.351047 C326.404843,173.10239 326.718805,172.998807 327,173.1 C329.75,175.05 332.45,177.05 335.15,179.05 C335.262973,179.162581 335.326473,179.315509 335.326473,179.475 C335.326473,179.634491 335.262973,179.787419 335.15,179.9 C335.039585,179.997381 334.897221,180.050768 334.75,180.050008 Z M318.4,168.4 C318.289524,168.45375 318.160476,168.45375 318.05,168.4 L309.75,162.8 C309.460051,162.620507 309.370507,162.239949 309.55,161.95 C309.729493,161.660051 310.110051,161.570507 310.4,161.75 C313.233333,163.55 316.033333,165.4 318.8,167.3 C319.010923,167.544079 319.010923,167.905921 318.8,168.15 C318.716823,168.294942 318.566734,168.388748 318.4,168.4 L318.4,168.4 Z M76.6,164.65 L76.25,164.65 C76.1370273,164.537419 76.0735269,164.384491 76.0735269,164.225 C76.0735269,164.065509 76.1370273,163.912581 76.25,163.8 C78.15,160.95 80.15,158.25 82.2,155.65 C82.3125811,155.537027 82.4655091,155.473527 82.625,155.473527 C82.7844909,155.473527 82.9374189,155.537027 83.05,155.65 C83.1791503,155.7639 83.2531373,155.9278 83.2531373,156.1 C83.2531373,156.2722 83.1791503,156.4361 83.05,156.55 C81.05,159.1 79.05,161.55 77.2,164.55 C77.038308,164.700959 76.8019116,164.740359 76.6,164.65 L76.6,164.65 Z M301.6,157.55 L301.25,157.55 C298.45,155.8 295.55,154.1 292.65,152.55 C292.462436,152.433889 292.351063,152.226533 292.357837,152.006042 C292.36461,151.78555 292.488499,151.585422 292.682837,151.481042 C292.877174,151.376662 293.112436,151.383889 293.3,151.5 C296.2,153.15 299.1,154.9 301.9,156.5 C302.012973,156.612581 302.076473,156.765509 302.076473,156.925 C302.076473,157.084491 302.012973,157.237419 301.9,157.35 C301.812849,157.458559 301.687774,157.530031 301.55,157.55 L301.6,157.55 Z M89.1,149.05 C88.9705916,149.095753 88.8294084,149.095753 88.7,149.05 C88.5870273,148.937419 88.5235269,148.784491 88.5235269,148.625 C88.5235269,148.465509 88.5870273,148.312581 88.7,148.2 C91.05,145.75 93.7,143.2 96,141.25 C96.2514875,141.008722 96.6485125,141.008722 96.9,141.25 C97.1412779,141.501487 97.1412779,141.898513 96.9,142.15 C94.45,144.3 91.9,146.6 89.7,149 C89.5079578,149.13197 89.2599664,149.151046 89.05,149.05 L89.1,149.05 Z M284.1,147.55 L283.8,147.55 C280.866667,145.95 277.916667,144.4 274.95,142.9 C274.772919,142.809699 274.646891,142.643335 274.607907,142.448419 C274.568924,142.253502 274.621271,142.051463 274.75,141.9 C274.823942,141.748536 274.958181,141.635157 275.119882,141.587598 C275.281582,141.540039 275.455829,141.562686 275.6,141.65 C278.5,143.1 281.5,144.7 284.45,146.3 C284.562973,146.412581 284.626473,146.565509 284.626473,146.725 C284.626473,146.884491 284.562973,147.037419 284.45,147.15 C284.419888,147.323709 284.308329,147.472454 284.15,147.55 L284.1,147.55 Z M266.25,138.5 L265.95,138.5 C263,137.1 259.9,135.7 256.85,134.4 C256.537879,134.243278 256.405399,133.867918 256.55,133.55 C256.615429,133.403361 256.736906,133.289066 256.887257,133.232685 C257.037607,133.176304 257.204284,133.18254 257.35,133.25 C260.45,134.6 263.5,135.95 266.5,137.4 C266.646639,137.465429 266.760934,137.586906 266.817315,137.737257 C266.873696,137.887607 266.86746,138.054284 266.8,138.2 C266.696397,138.379707 266.50732,138.493153 266.3,138.5 L266.25,138.5 Z M104.1,135.95 C103.900252,135.963893 103.708734,135.868135 103.6,135.7 C103.487027,135.587419 103.423527,135.434491 103.423527,135.275 C103.423527,135.115509 103.487027,134.962581 103.6,134.85 C106.35,132.9 109.15,131.05 112.05,129.4 C112.343981,129.293291 112.672277,129.411067 112.831381,129.68032 C112.990485,129.949574 112.935286,130.293961 112.7,130.5 C109.85,132.15 107,133.95 104.35,135.85 C104.290188,135.895571 104.222344,135.929494 104.15,135.95 L104.1,135.95 Z M247.85,130.55 L247.85,130.55 C244.75,129.35 241.6,128.15 238.5,127.05 C238.175225,126.93204 237.999503,126.580597 238.1,126.25 C238.252299,125.960921 238.584329,125.815657 238.9,125.9 C242.05,127 245.2,128.2 248.3,129.4 C248.631371,129.4 248.9,129.668629 248.9,130 C248.9,130.331371 248.631371,130.6 248.3,130.6 L247.85,130.55 Z M121.4,125.95 C121.170213,125.931034 120.964503,125.800127 120.85,125.6 C120.705399,125.282082 120.837879,124.906722 121.15,124.75 C124.15,123.4 127.25,122.1 130.45,120.95 C130.602069,120.885254 130.774112,120.886105 130.925534,120.952352 C131.076955,121.018599 131.194343,121.144374 131.25,121.3 C131.356491,121.616997 131.205085,121.963068 130.9,122.1 C127.75,123.25 124.65,124.55 121.7,125.9 L121.4,125.95 Z M228.95,123.9 L228.95,123.9 C225.75,122.9 222.55,122 219.35,121.15 C219.043052,121.036013 218.856131,120.724477 218.9,120.4 C218.933545,120.213477 219.046824,120.050883 219.210174,119.954795 C219.373523,119.858707 219.570674,119.838695 219.75,119.9 C222.9,120.75 226.15,121.65 229.4,122.7 C229.731371,122.7 230,122.968629 230,123.3 C230,123.631371 229.731371,123.9 229.4,123.9 L228.95,123.9 Z M140.25,119.15 C139.979736,119.128836 139.745991,118.953527 139.65,118.7 C139.55392,118.354891 139.755177,117.997101 140.1,117.9 C143.25,117.05 146.55,116.3 150.1,115.65 C150.259361,115.604821 150.43031,115.627533 150.572347,115.712755 C150.714383,115.797977 150.81487,115.938126 150.85,116.1 C150.911895,116.44373 150.691095,116.77493 150.35,116.85 C147.05,117.5 143.8,118.25 140.65,119.1 L140.25,119.15 Z M209.75,118.75 L209.75,118.75 C206.45,118.05 203.15,117.4 199.75,116.9 C199.408905,116.82493 199.188105,116.49373 199.25,116.15 C199.274413,115.98983 199.362565,115.846341 199.494406,115.752169 C199.626248,115.657997 199.79057,115.621147 199.95,115.65 C203.15,116.2 206.5,116.8 209.95,117.55 C210.291095,117.62507 210.511895,117.95627 210.45,118.3 C210.375495,118.613729 210.066345,118.812468 209.75,118.75 Z M189.75,115.55 L189.75,115.55 C186.45,115.2 183.1,114.95 179.75,114.8 C179.484737,114.875774 179.200538,114.775849 179.041067,114.550738 C178.881597,114.325627 178.881597,114.024373 179.041067,113.799262 C179.200538,113.574151 179.484737,113.474226 179.75,113.55 L179.75,113.55 C183.05,113.55 186.45,113.95 189.75,114.3 C189.919239,114.311695 190.075617,114.394487 190.180426,114.527879 C190.285235,114.661272 190.328677,114.832799 190.3,115 C190.25869,115.2849 190.0349,115.50869 189.75,115.55 L189.75,115.55 Z M159.75,115.55 C159.59568,115.564089 159.442577,115.512424 159.328347,115.407713 C159.214116,115.303001 159.149358,115.15496 159.15,115 C159.119978,114.837759 159.164379,114.67061 159.270956,114.544655 C159.377534,114.4187 159.535028,114.347246 159.7,114.35 C162.95,114 166.3,113.75 169.7,113.65 L169.7,113.65 C170.020964,113.673871 170.276129,113.929036 170.3,114.25 C170.314016,114.4176 170.257046,114.583389 170.142969,114.706972 C170.028893,114.830555 169.868184,114.900585 169.7,114.9 C166.35,114.9 163,115.2 159.7,115.55 L159.75,115.55 Z" id="Shape" fill="#D8D5DB"></path>
                    <path d="M469.75,395.75 C469.75,396.35 469.75,396.85 469.75,397.4 C468.5,411.35 456.5,441.1 444.75,467.4 C445.15,476.9 445.45,485.4 445.5,492.4 C445.5,493.7 445.5,494.9 445.5,496.1 L444.05,496.1 C444.4,502.3 444.85,513.05 445.2,525.4 C401.95,551.55 348.35,567.4 292.55,580.4 L283,582.55 C274.705793,584.434058 266.197985,585.207496 257.7,584.85 C257.188756,582.757625 257.003242,580.598922 257.15,578.45 C258.331932,550.260969 261.270971,522.173104 265.95,494.35 L262.85,493.9 C274.2,455.6 279.9,400.35 282.85,352.4 L282.85,352.4 C283.2,346.75 283.5,341.25 283.75,335.8 C276.5,343.2 271.5,347.8 271.5,347.8 L256.15,322.55 C237.2,336.25 219.3,348.35 210.55,353.95 C203.3,360.75 190.95,361.75 181.25,348.95 C165.55,328.4 143.4,242.15 140.8,227.5 C140.420578,227.356562 140.066207,227.154064 139.75,226.9 C136.15,221.9 123.55,194.65 124.75,189.35 C125.95,184.05 131.85,172.6 138.7,171.05 C137.9,168.6 137,166.05 135.7,162.5 C132.8,154.6 129.35,146.6 134.55,147.5 C139.75,148.4 151.65,177.5 153.7,182.5 C154,180.15 154.3,178.25 154.3,178.25 C155.9,173.55 164.3,171.05 163.05,178.25 C161.6,188.25 165.1,193.25 164.95,201.5 C164.95,201.95 164.95,202.45 164.95,203.15 C164.970022,203.449666 164.970022,203.750334 164.95,204.05 C164.976673,204.265846 164.976673,204.484154 164.95,204.7 C164.95,204.7 164.95,204.95 164.95,205.05 C163.732691,211.194541 161.573925,217.114282 158.55,222.6 L158.55,222.6 C164,240.4 189,286.95 203.55,312.6 C212.45,305.2 223.55,296.4 235.05,287.6 L234.05,285.95 C234.05,285.95 293.35,230.5 324.05,226.3 C324.5,224.15 324.8,221.8 325.1,219.35 C325.4,216.9 325.6,212.75 325.7,209.35 C303.15,209.1 301.05,192.5 303.3,171.4 L299.75,170.5 L305,156.9 L305,155.9 C304.423508,155.228957 304.088971,154.383812 304.05,153.5 C304.05,151.85 304.5,150.45 305.4,150.4 C305.528608,150.349797 305.671392,150.349797 305.8,150.4 C305.8,149.2 306.2,148 306.35,146.8 C306.75,144.15 307.25,141.8 307.75,139.35 C306.412792,139.087176 305.037208,139.087176 303.7,139.35 L303.3,136.9 C304.953641,136.605317 306.646359,136.605317 308.3,136.9 C309.959452,130.196281 312.640844,123.787921 316.25,117.9 C309.05,117.4 305.65,115.05 310.65,109.25 C318.4,100.25 355.1,95.75 373.6,99.55 C380.1,100.9 384.35,103.25 384.4,106.75 C384.4,107.15 384.4,107.4 384.4,107.75 L384.4,107.75 C386.292142,106.949351 387.920858,105.632517 389.1,103.95 L391.2,105.35 C389.993297,107.057256 388.422039,108.474803 386.6,109.5 L385.85,109.9 C405.65,122.8 377.65,191.9 377.55,191.9 C377,203.75 376.65,215.45 376.7,223.7 C394.5,225.75 405.75,230.95 413.2,239.1 C433.2,255.15 463.9,321 463.9,321 L451.35,324.3 C460.3,353 467.9,381.8 470.1,391.45 C470.165876,392.892371 470.048268,394.337269 469.75,395.75 Z" id="Path" fill="#D1CDD3"></path>
                    <rect id="Rectangle" fill="#4D8DFF" opacity="0.3" transform="translate(209.725000, 154.275000) rotate(180.000000) translate(-209.725000, -154.275000) " x="42.4" y="23.65" width="334.65" height="261.25" rx="33.6"></rect>
                    <path d="M354.75,308.55 L40.15,308.55 C18.05861,308.55 0.15,290.64139 0.15,268.55 L0.15,40.15 C0.15,18.05861 18.05861,0.15 40.15,0.15 L354.75,0.15 C376.84139,0.15 394.750282,18.05861 394.750282,40.15 L394.750282,268.4 C394.78988,279.034625 390.593219,289.247359 383.087437,296.781288 C375.581655,304.315217 365.3847,308.55 354.75,308.55 Z M40.15,1.25 C18.6775437,1.27754648 1.27754648,18.6775437 1.25,40.15 L1.25,268.4 C1.27754648,289.872456 18.6775437,307.272454 40.15,307.3 L354.75,307.3 C376.222456,307.272454 393.622454,289.872456 393.65,268.4 L393.65,40.15 C393.622454,18.6775437 376.222456,1.27754648 354.75,1.25 L40.15,1.25 Z" id="Shape" fill="#4D8DFF" opacity="0.3"></path>
                    <g id="Group" opacity="0.3" transform="translate(70.000000, 55.000000)" fill="#4D8DFF">
                        <rect id="Rectangle" transform="translate(28.100000, 24.225000) rotate(180.000000) translate(-28.100000, -24.225000) " x="0.15" y="2.4" width="55.9" height="43.65" rx="5.6"></rect>
                        <rect id="Rectangle" transform="translate(102.500000, 24.225000) rotate(180.000000) translate(-102.500000, -24.225000) " x="74.55" y="2.4" width="55.9" height="43.65" rx="5.6"></rect>
                        <rect id="Rectangle" transform="translate(176.950000, 24.225000) rotate(180.000000) translate(-176.950000, -24.225000) " x="149" y="2.4" width="55.9" height="43.65" rx="5.6"></rect>
                        <rect id="Rectangle" transform="translate(251.400000, 24.225000) rotate(180.000000) translate(-251.400000, -24.225000) " x="223.45" y="2.4" width="55.9" height="43.65" rx="5.6"></rect>
                    </g>
                    <g id="Group" opacity="0.3" transform="translate(70.000000, 130.000000)" fill="#4D8DFF">
                        <rect id="Rectangle" transform="translate(28.100000, 24.275000) rotate(180.000000) translate(-28.100000, -24.275000) " x="0.15" y="2.45" width="55.9" height="43.65" rx="5.6"></rect>
                        <rect id="Rectangle" transform="translate(102.500000, 24.275000) rotate(180.000000) translate(-102.500000, -24.275000) " x="74.55" y="2.45" width="55.9" height="43.65" rx="5.6"></rect>
                        <rect id="Rectangle" transform="translate(176.950000, 24.275000) rotate(180.000000) translate(-176.950000, -24.275000) " x="149" y="2.45" width="55.9" height="43.65" rx="5.6"></rect>
                        <rect id="Rectangle" transform="translate(251.400000, 24.275000) rotate(180.000000) translate(-251.400000, -24.275000) " x="223.45" y="2.45" width="55.9" height="43.65" rx="5.6"></rect>
                    </g>
                    <g id="Group" opacity="0.3" transform="translate(70.000000, 205.000000)" fill="#4D8DFF">
                        <rect id="Rectangle" transform="translate(28.100000, 24.275000) rotate(180.000000) translate(-28.100000, -24.275000) " x="0.15" y="2.45" width="55.9" height="43.65" rx="5.6"></rect>
                        <rect id="Rectangle" transform="translate(102.500000, 24.275000) rotate(180.000000) translate(-102.500000, -24.275000) " x="74.55" y="2.45" width="55.9" height="43.65" rx="5.6"></rect>
                        <rect id="Rectangle" transform="translate(176.950000, 24.275000) rotate(180.000000) translate(-176.950000, -24.275000) " x="149" y="2.45" width="55.9" height="43.65" rx="5.6"></rect>
                        <rect id="Rectangle" transform="translate(251.400000, 24.275000) rotate(180.000000) translate(-251.400000, -24.275000) " x="223.45" y="2.45" width="55.9" height="43.65" rx="5.6"></rect>
                    </g>
                    <rect id="Rectangle" fill="#4D8DFF" transform="translate(254.050000, 72.125000) rotate(180.000000) translate(-254.050000, -72.125000) " x="226.1" y="50.3" width="55.9" height="43.65" rx="5.6"></rect>
                    <rect id="Rectangle" fill="#FF4E4A" transform="translate(254.050000, 222.175000) rotate(180.000000) translate(-254.050000, -222.175000) " x="226.1" y="200.35" width="55.9" height="43.65" rx="5.6"></rect>
                    <rect id="Rectangle" fill="#FFC84D" transform="translate(105.150000, 147.175000) rotate(180.000000) translate(-105.150000, -147.175000) " x="77.2" y="125.35" width="55.9" height="43.65" rx="5.6"></rect>
                    <path d="M416.1,148.75 C414.4,159.65 411.1,218.75 412.45,232.25 C413.8,245.75 347.45,249.85 356.3,234.8 C365.15,219.75 358.85,169.8 358.85,169.8 L416.1,148.75 Z" id="Path" fill="#FFAD69"></path>
                    <path d="M411.500054,150.45 L358.85,169.7 C360.821616,186.173281 361.290214,202.791794 360.25,219.35 C381.95,210.4 377.15,192.2 377.15,182.4 C377.15,173.5 411.55,152.15 411.500054,150.45 Z" id="Path" fill="#D88344"></path>
                    <polygon id="Path" fill="#D88344" points="342.1 152.7 333.9 170.2 343.9 174.25"></polygon>
                    <path d="M341.95,146.9 C336.95,180.55 328.75,214.1 369.55,208.55 C410.35,203 416.65,150.8 416.55,140.9 C415.9,88.3 351.55,80.8 341.95,146.9 Z" id="Path" fill="#FFAD69"></path>
                    <path d="M421.5,110.1 C423.606982,109.011171 425.436986,107.454813 426.85,105.55 L424.75,104.15 C423.473915,105.861728 421.740901,107.178819 419.75,107.95 C419.777062,107.600523 419.777062,107.249477 419.75,106.9 C419.75,93.3 356.45,97.2 346,109.35 C339.8,116.55 346.4,118.45 357.1,118.1 C356.30554,118.711478 355.713244,119.547661 355.4,120.5 C348.35,155.05 381.65,189.05 385.4,191.95 L412.6,191.95 C412.6,191.95 441.1,122.8 421.5,110.1 Z" id="Path" fill="#232323"></path>
                    <path d="M505.5,391.5 C501.9,375.45 483.15,306 468.25,272.7 L430.2,280.8 C430.2,280.8 454.75,362.9 467.8,393.55 C464.75,410.05 449.35,486.8 439.85,508.25 C435.65,518.25 451.55,522.1 455.4,517.3 C459.25,512.5 502.95,424.7 505.4,397.3 C505.4,396.7 505.4,396.2 505.4,395.65 C505.64952,394.280343 505.683261,392.880085 505.5,391.5 L505.5,391.5 Z" id="Path" fill="#FFAD69"></path>
                    <path d="M448.35,238.85 C468.35,254.5 499.3,321.05 499.3,321.05 L433.8,338.05 C433.8,338.05 395.7,197.65 448.35,238.85 Z" id="Path" fill="#E5AA33"></path>
                    <path d="M479.75,500.35 C469.073487,509.764374 457.520868,518.135837 445.25,525.35 C402,551.5 348.4,567.35 292.6,580.35 C292.550025,579.700961 292.550025,579.049039 292.6,578.4 C294.4,547.45 297.6,512.1 302.6,489.65 L445.65,492.5 L479.45,493.2 C479.45,494.9 479.75,497.3 479.75,500.35 Z" id="Path" fill="#232323"></path>
                    <path d="M400.45,222.9 C439.7,224.2 453,237.45 459.75,260.4 C467.45,286.4 481,443.65 481,496.15 C481,496.15 363.45,504.5 298.35,493.8 C318.75,424.85 320.95,300.9 321.4,263.8 C321.7,236.25 350.65,221.25 400.45,222.9 Z" id="Path" fill="#FFC84D"></path>
                    <path d="M408.3,251.400085 C407.117785,251.408002 406.002927,250.850573 405.3,249.9 L394.75,235.7 C393.897763,234.563684 393.760678,233.043389 394.395898,231.772949 C395.031118,230.502509 396.329605,229.7 397.75,229.7 L414.1,229.7 C415.30247,229.73326 416.418179,230.333912 417.108014,231.31939 C417.797849,232.304869 417.980332,233.558778 417.6,234.7 L411.9,248.9 C411.387827,250.151485 410.241544,251.030302 408.9,251.2 L408.3,251.400085 Z M397.65,232.2 C397.163022,232.18934 396.714205,232.462533 396.5,232.9 C396.244949,233.295804 396.244949,233.804196 396.5,234.2 L407.15,248.4 C407.415961,248.760798 407.854746,248.951574 408.3,248.9 C408.759659,248.84835 409.148709,248.53711 409.3,248.1 L415,233.95 C415.225239,233.581708 415.225239,233.118292 415,232.75 C414.7647,232.401826 414.3702,232.195183 413.95,232.2 L397.65,232.2 Z" id="Shape" fill="#FFFFFF"></path>
                    <path d="M342.8,153.25 C342.8,154.9 342.35,156.3 341.45,156.35 C340.55,156.4 339.75,155.15 339.65,153.5 C339.55,151.85 340.1,150.5 341,150.4 C341.9,150.3 342.7,151.6 342.8,153.25 Z" id="Path"></path>
                    <path d="M348.8,143.35 C346.74273,140.204264 342.994134,138.606178 339.3,139.3 L338.75,136.9 C343.439137,135.949309 348.23821,137.924236 350.9,141.9 L348.8,143.35 Z" id="Path"></path>
                    <path d="M321.25,272.95 C320.95,291.1 320.25,320.05 318.3,352.4 C334.95,332.4 351.3,308.75 352.25,291 C353.6,266.6 339.75,265.1 321.25,272.95 Z" id="Path" fill="#E5AA33"></path>
                    <path d="M343.4,281.4 L323.4,248.15 C323.4,248.15 268.4,287.8 238.85,312.35 C224.25,286.65 199.3,240.1 193.85,222.35 C193.85,222.35 193.85,222.35 193.85,222.35 C196.864254,216.882568 199.006703,210.97818 200.2,204.85 C200.229637,204.735216 200.229637,204.614784 200.2,204.5 C200.2,204.5 200.2,204.05 200.2,203.85 C200.221803,203.550396 200.221803,203.249604 200.2,202.95 C200.2,202.25 200.2,201.7 200.2,201.25 C200.2,193.2 196.85,188.25 198.3,178.05 C199.3,170.9 191.15,173.35 189.55,178.05 L188.9,182.25 C186.85,177.25 174.5,147.9 169.8,147.25 C165.1,146.6 168.05,154.5 170.95,162.25 C172.2,165.7 173.15,168.4 173.95,170.8 C167.05,172.4 160.95,184.2 160,189.15 C159.05,194.1 171.55,221.7 175,226.7 C175.267234,227.034154 175.588301,227.321424 175.95,227.55 C178.5,242.25 200.95,328.45 216.35,349.05 C226.05,361.8 238.45,360.8 245.7,354.05 C263.5,342.7 318.2,305.1 343.4,281.4 Z" id="Path" fill="#FFAD69"></path>
                    <path d="M377.15,248.15 C375.15,284.85 307.15,347.8 307.15,347.8 L269.25,285.8 C269.25,285.8 380.85,181.4 377.15,248.15 Z" id="Path" fill="#FFC84D"></path>
                    <path d="M356.15,157.3 C354.65,166.1 352.45,174.85 360.7,174.2 C368.95,173.55 371.05,159.85 371.2,157.25 C371.9,143.25 359.1,139.9 356.15,157.3 Z" id="Path" fill="#FFAD69"></path>
                </g>
            </g>
        </g>
    </g>
</svg>