<?xml version="1.0" standalone="no"?>
<!DOCTYPE svg PUBLIC "-//W3C//DTD SVG 20010904//EN"
 "http://www.w3.org/TR/2001/REC-SVG-20010904/DTD/svg10.dtd">
<svg version="1.0" xmlns="http://www.w3.org/2000/svg"
 width="71.000000pt" height="71.000000pt" viewBox="0 0 71.000000 71.000000"
 preserveAspectRatio="xMidYMid meet">
<metadata>
Created by potrace 1.14, written by Peter Selinger 2001-2017
</metadata>
<g transform="translate(0.000000,71.000000) scale(0.100000,-0.100000)"
fill="#000000" stroke="none">
<path d="M315 679 c-133 -6 -185 -18 -185 -42 0 -25 49 -257 64 -300 7 -23 18
-43 23 -44 5 -2 27 18 49 44 21 26 48 57 59 69 11 12 40 46 65 75 25 29 59 67
75 85 56 59 86 97 80 102 -12 12 -107 17 -230 11z"/>
<path d="M476 561 c-47 -55 -86 -104 -86 -109 0 -12 265 -158 295 -164 26 -4
30 30 16 161 -11 115 -39 173 -96 197 -19 8 -36 14 -39 14 -2 0 -43 -45 -90
-99z"/>
<path d="M77 588 c-34 -75 -40 -115 -40 -248 1 -116 4 -144 24 -199 20 -55 30
-68 64 -87 23 -12 58 -26 79 -30 l39 -7 -7 44 c-4 24 -15 78 -26 119 -11 41
-34 136 -50 210 -41 184 -53 230 -61 230 -4 0 -13 -15 -22 -32z"/>
<path d="M292 351 c-49 -54 -72 -87 -72 -104 0 -32 27 -161 43 -206 l12 -33
145 4 c108 3 153 8 175 20 64 34 102 99 106 181 2 26 1 48 -2 50 -6 5 -114 61
-179 93 -30 15 -66 36 -80 45 -57 41 -70 37 -148 -50z"/>
</g>
</svg>
